<?xml version="1.0" standalone="no"?><!DOCTYPE svg PUBLIC "-//W3C//DTD SVG 1.1//EN" "http://www.w3.org/Graphics/SVG/1.1/DTD/svg11.dtd"><svg class="icon" width="200px" height="200.00px" viewBox="0 0 1024 1024" version="1.1" xmlns="http://www.w3.org/2000/svg"><path fill="#ffffff" d="M474.288097 127.049604 857.759815 508.9792l-82.171488 81.8471L392.115586 208.894657 474.288097 127.049604zM857.759815 508.9792 474.288097 890.910842l-82.173534-81.84096L775.588327 427.134147 857.759815 508.9792zM435.55391 451.108165c32.088836 0 58.105373 25.908066 58.105373 57.871035 0 31.958876-26.016537 57.866942-58.105373 57.866942-32.090882 0-58.105373-25.908066-58.105373-57.866942C377.449561 477.016231 403.463028 451.108165 435.55391 451.108165zM241.8707 451.108165c32.092929 0 58.107419 25.908066 58.107419 57.871035 0 31.958876-26.013467 57.866942-58.107419 57.866942-32.088836 0-58.102303-25.908066-58.102303-57.866942C183.768397 477.016231 209.781864 451.108165 241.8707 451.108165z" /></svg>